<svg xmlns="http://www.w3.org/2000/svg" width="500" height="500" style="width:100%;height:100%;transform:translate3d(0,0,0);content-visibility:visible" viewBox="0 0 500 500"><defs><clipPath id="i"><path d="M0 0h500v500H0z"/></clipPath><clipPath id="s"><path d="M0 0h500v500H0z"/></clipPath><clipPath id="e"><path d="M0 0h500v500H0z"/></clipPath><clipPath id="p"><path d="M0 0h500v500H0z"/></clipPath><clipPath id="f"><path d="M0 0h500v500H0z"/></clipPath><clipPath id="m"><path d="M0 0h500v500H0z"/></clipPath><clipPath id="g"><path d="M0 0h500v500H0z"/></clipPath><clipPath id="j"><path d="M0 0h500v500H0z"/></clipPath><clipPath id="h"><path d="M0 0h500v500H0z"/></clipPath><filter id="u" width="300%" height="300%" x="-100%" y="-100%"><feGaussianBlur result="filter_result_0" stdDeviation="52.5 52.5"/></filter><filter id="r" width="300%" height="300%" x="-100%" y="-100%"><feGaussianBlur result="filter_result_0" stdDeviation="52.5 52.5"/></filter><filter id="o" width="300%" height="300%" x="-100%" y="-100%"><feGaussianBlur result="filter_result_0" stdDeviation="52.5 52.5"/></filter><filter id="l" width="300%" height="300%" x="-100%" y="-100%"><feGaussianBlur result="filter_result_0" stdDeviation="52.5 52.5"/></filter><mask id="t" mask-type="alpha"><use xmlns:ns1="http://www.w3.org/1999/xlink" ns1:href="#a"/></mask><mask id="q" mask-type="alpha"><use xmlns:ns2="http://www.w3.org/1999/xlink" ns2:href="#b"/></mask><mask id="n" mask-type="alpha"><use xmlns:ns3="http://www.w3.org/1999/xlink" ns3:href="#c"/></mask><mask id="k" mask-type="alpha"><use xmlns:ns4="http://www.w3.org/1999/xlink" ns4:href="#d"/></mask><g id="a" clip-path="url(#e)" style="display:block"><g fill-opacity="0" stroke-linecap="round" stroke-linejoin="round" stroke-width="12" style="display:block"><path stroke="#121331" d="M311.405 173.178v33.589c0 33.806-27.413 61.219-61.219 61.219h-1.494c-33.806 0-61.219-27.413-61.219-61.219v-30.028"/><path stroke="#08A88A" d="M311.405 176.312s2.616-39.608-37.989-60.782c0 0-12.393 46.022-89.843 62.061 0 0-26.554-78.193 6.606-97.182 3.715-2.127 9.811-1.91 13.416.398 5.06 3.239 10.136 8.519 13.336 11.244 2.429 2.069 5.541 3.171 8.728 3.015 4.393-.215 10.477-1.475 16.483-4.696 48.052-19.099 76.825 2.881 76.239 31.387-.545 26.527 2.49 48.576-6.976 54.555z"/></g><g style="display:block"><path fill-opacity="0" stroke="#121331" stroke-linecap="round" stroke-linejoin="round" stroke-width="12" d="M215.871 258.457v19.742c0 17.469 14.168 31.636 31.637 31.636H250c17.469 0 31.637-14.167 31.637-31.636v-18.902"/><path fill-opacity="0" stroke="#08A88A" stroke-linecap="round" stroke-linejoin="round" stroke-width="12" d="M282.633 362.762s0 0 0 0c0-10.129 1.036-18.341 2.313-18.341h.244c.546.017 2.38 1.34 6.007 5.086 6.499-6.352 12.996-6.352 19.492 0 3.627-3.746 5.461-5.069 6.007-5.086h.244c1.277 0 2.313 8.212 2.313 18.341 0 0 0 0 0 0v-1.111 2.242c0 8.943-7.249 16.192-16.192 16.192h-4.235c-8.943 0-16.192-7.249-16.192-16.192v-2.242"/><path fill="red" d="M282.633 362.762c0-10.129 1.036-18.341 2.313-18.341h.244c.546.017 2.38 1.34 6.007 5.086 6.499-6.352 12.996-6.352 19.492 0 3.627-3.746 5.461-5.069 6.007-5.086h.244c1.277 0 2.313 8.212 2.313 18.341v-1.111 2.242c0 8.943-7.249 16.192-16.192 16.192h-4.235c-8.943 0-16.192-7.249-16.192-16.192v-2.242"/><path fill-opacity="0" stroke="#121331" stroke-linecap="round" stroke-linejoin="round" stroke-width="12" d="m284.128 278.199 8.968.498c43.48 0 78.719 35.239 78.719 78.719v31.512c0 8.459-6.862 15.32-15.321 15.32h-19.43c-38.487 2.989-37.994 16.815-70.166 16.815h-33.796c-32.172 0-31.679-13.826-70.166-16.815h-19.43c-8.459 0-15.321-6.861-15.321-15.32v-31.512c0-43.48 35.239-78.719 78.719-78.719l8.968-.498"/></g></g><g id="b" clip-path="url(#f)" style="display:block"><g fill-opacity="0" stroke-linecap="round" stroke-linejoin="round" stroke-width="12" style="display:block"><path stroke="#121331" d="M311.405 173.178v33.589c0 33.806-27.413 61.219-61.219 61.219h-1.494c-33.806 0-61.219-27.413-61.219-61.219v-30.028"/><path stroke="#08A88A" d="M311.405 176.312s2.616-39.608-37.989-60.782c0 0-12.393 46.022-89.843 62.061 0 0-26.554-78.193 6.606-97.182 3.715-2.127 9.811-1.91 13.416.398 5.06 3.239 10.136 8.519 13.336 11.244 2.429 2.069 5.541 3.171 8.728 3.015 4.393-.215 10.477-1.475 16.483-4.696 48.052-19.099 76.825 2.881 76.239 31.387-.545 26.527 2.49 48.576-6.976 54.555z"/></g><g style="display:block"><path fill-opacity="0" stroke="#121331" stroke-linecap="round" stroke-linejoin="round" stroke-width="12" d="M215.871 258.457v19.742c0 17.469 14.168 31.636 31.637 31.636H250c17.469 0 31.637-14.167 31.637-31.636v-18.902"/><path fill-opacity="0" stroke="#08A88A" stroke-linecap="round" stroke-linejoin="round" stroke-width="12" d="M282.633 362.762s0 0 0 0c0-10.129 1.036-18.341 2.313-18.341h.244c.546.017 2.38 1.34 6.007 5.086 6.499-6.352 12.996-6.352 19.492 0 3.627-3.746 5.461-5.069 6.007-5.086h.244c1.277 0 2.313 8.212 2.313 18.341 0 0 0 0 0 0v-1.111 2.242c0 8.943-7.249 16.192-16.192 16.192h-4.235c-8.943 0-16.192-7.249-16.192-16.192v-2.242"/><path fill="red" d="M282.633 362.762c0-10.129 1.036-18.341 2.313-18.341h.244c.546.017 2.38 1.34 6.007 5.086 6.499-6.352 12.996-6.352 19.492 0 3.627-3.746 5.461-5.069 6.007-5.086h.244c1.277 0 2.313 8.212 2.313 18.341v-1.111 2.242c0 8.943-7.249 16.192-16.192 16.192h-4.235c-8.943 0-16.192-7.249-16.192-16.192v-2.242"/><path fill-opacity="0" stroke="#121331" stroke-linecap="round" stroke-linejoin="round" stroke-width="12" d="m284.128 278.199 8.968.498c43.48 0 78.719 35.239 78.719 78.719v31.512c0 8.459-6.862 15.32-15.321 15.32h-19.43c-38.487 2.989-37.994 16.815-70.166 16.815h-33.796c-32.172 0-31.679-13.826-70.166-16.815h-19.43c-8.459 0-15.321-6.861-15.321-15.32v-31.512c0-43.48 35.239-78.719 78.719-78.719l8.968-.498"/></g></g><g id="c" clip-path="url(#g)" style="display:block"><g fill-opacity="0" stroke-linecap="round" stroke-linejoin="round" stroke-width="12" style="display:block"><path stroke="#121331" d="M311.405 173.178v33.589c0 33.806-27.413 61.219-61.219 61.219h-1.494c-33.806 0-61.219-27.413-61.219-61.219v-30.028"/><path stroke="#08A88A" d="M311.405 176.312s2.616-39.608-37.989-60.782c0 0-12.393 46.022-89.843 62.061 0 0-26.554-78.193 6.606-97.182 3.715-2.127 9.811-1.91 13.416.398 5.06 3.239 10.136 8.519 13.336 11.244 2.429 2.069 5.541 3.171 8.728 3.015 4.393-.215 10.477-1.475 16.483-4.696 48.052-19.099 76.825 2.881 76.239 31.387-.545 26.527 2.49 48.576-6.976 54.555z"/></g><g style="display:block"><path fill-opacity="0" stroke="#121331" stroke-linecap="round" stroke-linejoin="round" stroke-width="12" d="M215.871 258.457v19.742c0 17.469 14.168 31.636 31.637 31.636H250c17.469 0 31.637-14.167 31.637-31.636v-18.902"/><path fill-opacity="0" stroke="#08A88A" stroke-linecap="round" stroke-linejoin="round" stroke-width="12" d="M282.633 362.762s0 0 0 0c0-10.129 1.036-18.341 2.313-18.341h.244c.546.017 2.38 1.34 6.007 5.086 6.499-6.352 12.996-6.352 19.492 0 3.627-3.746 5.461-5.069 6.007-5.086h.244c1.277 0 2.313 8.212 2.313 18.341 0 0 0 0 0 0v-1.111 2.242c0 8.943-7.249 16.192-16.192 16.192h-4.235c-8.943 0-16.192-7.249-16.192-16.192v-2.242"/><path fill="red" d="M282.633 362.762c0-10.129 1.036-18.341 2.313-18.341h.244c.546.017 2.38 1.34 6.007 5.086 6.499-6.352 12.996-6.352 19.492 0 3.627-3.746 5.461-5.069 6.007-5.086h.244c1.277 0 2.313 8.212 2.313 18.341v-1.111 2.242c0 8.943-7.249 16.192-16.192 16.192h-4.235c-8.943 0-16.192-7.249-16.192-16.192v-2.242"/><path fill-opacity="0" stroke="#121331" stroke-linecap="round" stroke-linejoin="round" stroke-width="12" d="m284.128 278.199 8.968.498c43.48 0 78.719 35.239 78.719 78.719v31.512c0 8.459-6.862 15.32-15.321 15.32h-19.43c-38.487 2.989-37.994 16.815-70.166 16.815h-33.796c-32.172 0-31.679-13.826-70.166-16.815h-19.43c-8.459 0-15.321-6.861-15.321-15.32v-31.512c0-43.48 35.239-78.719 78.719-78.719l8.968-.498"/></g></g><g id="d" clip-path="url(#h)" style="display:block"><g fill-opacity="0" stroke-linecap="round" stroke-linejoin="round" stroke-width="12" style="display:block"><path stroke="#121331" d="M311.405 173.178v33.589c0 33.806-27.413 61.219-61.219 61.219h-1.494c-33.806 0-61.219-27.413-61.219-61.219v-30.028"/><path stroke="#08A88A" d="M311.405 176.312s2.616-39.608-37.989-60.782c0 0-12.393 46.022-89.843 62.061 0 0-26.554-78.193 6.606-97.182 3.715-2.127 9.811-1.91 13.416.398 5.06 3.239 10.136 8.519 13.336 11.244 2.429 2.069 5.541 3.171 8.728 3.015 4.393-.215 10.477-1.475 16.483-4.696 48.052-19.099 76.825 2.881 76.239 31.387-.545 26.527 2.49 48.576-6.976 54.555z"/></g><g style="display:block"><path fill-opacity="0" stroke="#121331" stroke-linecap="round" stroke-linejoin="round" stroke-width="12" d="M215.871 258.457v19.742c0 17.469 14.168 31.636 31.637 31.636H250c17.469 0 31.637-14.167 31.637-31.636v-18.902"/><path fill-opacity="0" stroke="#08A88A" stroke-linecap="round" stroke-linejoin="round" stroke-width="12" d="M282.633 362.762s0 0 0 0c0-10.129 1.036-18.341 2.313-18.341h.244c.546.017 2.38 1.34 6.007 5.086 6.499-6.352 12.996-6.352 19.492 0 3.627-3.746 5.461-5.069 6.007-5.086h.244c1.277 0 2.313 8.212 2.313 18.341 0 0 0 0 0 0v-1.111 2.242c0 8.943-7.249 16.192-16.192 16.192h-4.235c-8.943 0-16.192-7.249-16.192-16.192v-2.242"/><path fill="red" d="M282.633 362.762c0-10.129 1.036-18.341 2.313-18.341h.244c.546.017 2.38 1.34 6.007 5.086 6.499-6.352 12.996-6.352 19.492 0 3.627-3.746 5.461-5.069 6.007-5.086h.244c1.277 0 2.313 8.212 2.313 18.341v-1.111 2.242c0 8.943-7.249 16.192-16.192 16.192h-4.235c-8.943 0-16.192-7.249-16.192-16.192v-2.242"/><path fill-opacity="0" stroke="#121331" stroke-linecap="round" stroke-linejoin="round" stroke-width="12" d="m284.128 278.199 8.968.498c43.48 0 78.719 35.239 78.719 78.719v31.512c0 8.459-6.862 15.32-15.321 15.32h-19.43c-38.487 2.989-37.994 16.815-70.166 16.815h-33.796c-32.172 0-31.679-13.826-70.166-16.815h-19.43c-8.459 0-15.321-6.861-15.321-15.32v-31.512c0-43.48 35.239-78.719 78.719-78.719l8.968-.498"/></g></g></defs><g clip-path="url(#i)"><g clip-path="url(#j)" mask="url(#k)" opacity="0" style="display:block"><g filter="url(#l)" transform="rotate(-94 262.075 8.435) scale(2.4)"><path fill="#4AE0EB" d="M0-250c137.975 0 250 112.025 250 250S137.975 250 0 250-250 137.975-250 0-137.975-250 0-250z" class="design"/><path fill="#CA5EED" d="M113.242-295.384c97.478 0 176.5 79.022 176.5 176.5s-79.022 176.5-176.5 176.5c-43.948 0-74.396-34.057-105.29-60.631-37.631-32.369-71.21-62.338-71.21-115.869 0-97.478 79.022-176.5 176.5-176.5z" class="design"/></g></g><g clip-path="url(#m)" mask="url(#n)" opacity="0" style="display:block"><g filter="url(#o)" transform="rotate(-94 262.075 8.435) scale(2.4)"><path fill="#4AE0EB" d="M0-250c137.975 0 250 112.025 250 250S137.975 250 0 250-250 137.975-250 0-137.975-250 0-250z" class="design"/><path fill="#CA5EED" d="M113.242-295.384c97.478 0 176.5 79.022 176.5 176.5s-79.022 176.5-176.5 176.5c-43.948 0-74.396-34.057-105.29-60.631-37.631-32.369-71.21-62.338-71.21-115.869 0-97.478 79.022-176.5 176.5-176.5z" class="design"/></g></g><g clip-path="url(#p)" mask="url(#q)" opacity="0" style="display:block"><g filter="url(#r)" transform="rotate(-94 262.075 8.435) scale(2.4)"><path fill="#4AE0EB" d="M0-250c137.975 0 250 112.025 250 250S137.975 250 0 250-250 137.975-250 0-137.975-250 0-250z" class="design"/><path fill="#CA5EED" d="M113.242-295.384c97.478 0 176.5 79.022 176.5 176.5s-79.022 176.5-176.5 176.5c-43.948 0-74.396-34.057-105.29-60.631-37.631-32.369-71.21-62.338-71.21-115.869 0-97.478 79.022-176.5 176.5-176.5z" class="design"/></g></g><g clip-path="url(#s)" mask="url(#t)" style="display:block"><g filter="url(#u)" transform="rotate(-94 262.075 8.435) scale(2.4)"><path fill="#4AE0EB" d="M0-250c137.975 0 250 112.025 250 250S137.975 250 0 250-250 137.975-250 0-137.975-250 0-250z" class="design"/><path fill="#CA5EED" d="M113.242-295.384c97.478 0 176.5 79.022 176.5 176.5s-79.022 176.5-176.5 176.5c-43.948 0-74.396-34.057-105.29-60.631-37.631-32.369-71.21-62.338-71.21-115.869 0-97.478 79.022-176.5 176.5-176.5z" class="design"/></g></g><path style="display:none"/></g></svg>